<svg id="Layer_1" data-name="Layer 1" xmlns="http://www.w3.org/2000/svg" viewBox="0 0 189.23 189.23"><defs><style>.cls-1{fill:#d0d2d3;}.cls-2{fill:#221d5e;}.cls-3,.cls-4,.cls-8,.cls-9{fill:none;}.cls-3,.cls-5{stroke:#d0d2d3;}.cls-3,.cls-4,.cls-5,.cls-8,.cls-9{stroke-miterlimit:10;}.cls-3{stroke-width:10px;stroke-dasharray:0.74 2.95;}.cls-4{stroke:#666868;stroke-linecap:round;stroke-width:2.7px;}.cls-5,.cls-7{fill:#ededee;}.cls-6{fill:#fff;}.cls-8{stroke:#fff;stroke-width:2.81px;}.cls-9{stroke:#9a1116;stroke-width:0.94px;}</style></defs><polygon class="cls-1" points="185.27 98.57 189.23 94.61 185.27 90.66 188.87 86.37 184.58 82.77 187.79 78.19 183.21 74.97 186 70.13 181.16 67.33 183.52 62.26 178.45 59.89 180.36 54.63 175.1 52.72 176.55 47.31 171.14 45.86 172.12 40.35 166.6 39.38 167.09 33.8 161.52 33.31 161.52 27.71 155.92 27.71 155.43 22.14 149.86 22.62 148.88 17.11 143.38 18.08 141.92 12.68 136.52 14.13 134.6 8.86 129.34 10.78 126.97 5.71 121.9 8.07 119.1 3.22 114.26 6.02 111.05 1.44 106.46 4.65 102.86 0.36 98.57 3.96 94.62 0 90.66 3.96 86.37 0.36 82.77 4.65 78.19 1.44 74.97 6.02 70.13 3.22 67.33 8.07 62.25 5.71 59.89 10.78 54.63 8.86 52.72 14.13 47.31 12.68 45.86 18.08 40.34 17.11 39.37 22.62 33.8 22.14 33.31 27.71 27.72 27.71 27.72 33.31 22.14 33.8 22.63 39.38 17.11 40.35 18.09 45.86 12.68 47.31 14.13 52.71 8.87 54.63 10.78 59.89 5.71 62.25 8.07 67.33 3.23 70.13 6.02 74.97 1.44 78.19 4.65 82.77 0.36 86.37 3.96 90.66 0 94.61 3.96 98.57 0.36 102.86 4.65 106.46 1.44 111.04 6.02 114.25 3.22 119.1 8.07 121.9 5.7 126.97 10.78 129.34 8.86 134.6 14.12 136.51 12.67 141.92 18.08 143.37 17.11 148.88 22.62 149.86 22.13 155.43 27.72 155.92 27.72 161.52 33.31 161.52 33.8 167.09 39.38 166.6 40.35 172.12 45.86 171.15 47.31 176.55 52.72 175.1 54.63 180.36 59.89 178.45 62.26 183.52 67.33 181.16 70.13 186 74.97 183.21 78.19 187.79 82.77 184.58 86.37 188.87 90.65 185.27 94.61 189.23 98.57 185.27 102.86 188.87 106.45 184.58 111.04 187.79 114.25 183.21 119.1 186 121.9 181.16 126.97 183.52 129.34 178.45 134.59 180.36 136.51 175.1 141.92 176.55 143.36 171.15 148.88 172.12 149.85 166.61 155.43 167.09 155.91 161.52 161.52 161.52 161.52 155.92 167.1 155.43 166.61 149.85 172.12 148.88 171.15 143.37 176.56 141.92 175.1 136.51 180.37 134.6 178.45 129.34 183.52 126.97 181.16 121.9 186 119.1 183.21 114.25 187.79 111.04 184.58 106.46 188.87 102.86 185.27 98.57"/><path class="cls-2" d="M11.49,98.62a87.64,87.64,0,1,1,87.64,87.64A87.64,87.64,0,0,1,11.49,98.62Z" transform="translate(-4.51 -4.01)"/><path class="cls-3" d="M41.6,98.62a57.53,57.53,0,1,1,57.53,57.52A57.53,57.53,0,0,1,41.6,98.62Z" transform="translate(-4.51 -4.01)"/><path class="cls-4" d="M27.94,68.06" transform="translate(-4.51 -4.01)"/><path class="cls-4" d="M169.61,68.07" transform="translate(-4.51 -4.01)"/><path class="cls-5" d="M45.23,98.62a53.9,53.9,0,1,1,53.9,53.9A53.9,53.9,0,0,1,45.23,98.62Z" transform="translate(-4.51 -4.01)"/><path class="cls-6" d="M32.1,61.15a8.28,8.28,0,0,1-2-1.78A6.2,6.2,0,0,1,29,57.28,5.25,5.25,0,0,1,28.86,55,6.24,6.24,0,0,1,31.55,51a5,5,0,0,1,2.14-.75,6.07,6.07,0,0,1,2.37.21,8.9,8.9,0,0,1,4.38,2.9,6.15,6.15,0,0,1,1.13,2.1,5.06,5.06,0,0,1,.14,2.26A5.8,5.8,0,0,1,40.78,60,6,6,0,0,1,39,61.74a5.09,5.09,0,0,1-2.14.75,6.27,6.27,0,0,1-2.37-.21A8.62,8.62,0,0,1,32.1,61.15Zm1.08-1.62a9.08,9.08,0,0,0,2,1,5.89,5.89,0,0,0,1.9.38,3.7,3.7,0,0,0,1.69-.37,3.46,3.46,0,0,0,1.35-1.22,3,3,0,0,0,.52-1.6,3.46,3.46,0,0,0-.38-1.61,6.25,6.25,0,0,0-1.12-1.55,10,10,0,0,0-1.71-1.4,9.13,9.13,0,0,0-2-1,5.55,5.55,0,0,0-1.89-.39,3.7,3.7,0,0,0-1.69.37,3.46,3.46,0,0,0-1.35,1.22A3.19,3.19,0,0,0,29.93,55a3.44,3.44,0,0,0,.39,1.61,5.6,5.6,0,0,0,1.14,1.52A11.54,11.54,0,0,0,33.18,59.53Z" transform="translate(-4.51 -4.01)"/><path class="cls-6" d="M45.85,51.4a6.1,6.1,0,0,1,1.38-.85l.39.35-3.13,3.4L44.11,54a4.93,4.93,0,0,1,.24-.64,5.2,5.2,0,0,1,.32-.62l-7.94-7.31a6,6,0,0,1-.64.4,5.55,5.55,0,0,1-.58.26l-.39-.36L40.9,39.4c.34.33.68.68,1,1s.68.73,1,1.11l-.32.35-2-.81-2.74,3,3.8,3.5,2.19-2.38-.4-1.26.3-.32a14,14,0,0,1,1.26,1c.41.38.8.78,1.17,1.19l-.29.32-1.34-.34-2.19,2.38Z" transform="translate(-4.51 -4.01)"/><path class="cls-6" d="M52.71,44.64A6.18,6.18,0,0,1,54.19,44l.34.41L51,47.33l-.34-.4c.1-.21.21-.41.33-.61a5.23,5.23,0,0,1,.4-.56l-6.88-8.32a5.1,5.1,0,0,1-.69.31,4.51,4.51,0,0,1-.61.18l-.33-.41,6.57-5.44c.29.38.58.76.88,1.17s.57.81.84,1.23l-.36.3-1.85-1.06L45.8,36.3l3.3,4,2.49-2.06-.22-1.3.33-.28a11.64,11.64,0,0,1,1.11,1.22c.35.43.68.87,1,1.33l-.33.28L52.2,39,49.7,41Z" transform="translate(-4.51 -4.01)"/><path class="cls-6" d="M62.59,38.61,58.7,41.16l-.29-.44a5,5,0,0,1,1-1.16l-5.91-9a5.53,5.53,0,0,1-.72.24q-.36.11-.75.18l-.29-.44L55.62,28l.29.44a7.29,7.29,0,0,1-.45.61c-.17.2-.34.39-.52.57l5.91,9a5.88,5.88,0,0,1,.74-.26,4.27,4.27,0,0,1,.71-.17Z" transform="translate(-4.51 -4.01)"/><path class="cls-6" d="M70.41,30.82l.43-.21c.2.28.44.64.71,1.08A10.55,10.55,0,0,1,72.24,33a2.2,2.2,0,0,1-.43.61,7,7,0,0,1-.63.56,8.22,8.22,0,0,1-1.47.9,8.87,8.87,0,0,1-2.62.85,5,5,0,0,1-4.39-1.46A8.53,8.53,0,0,1,61,32a8.37,8.37,0,0,1-.9-2.94,5.54,5.54,0,0,1,.3-2.41,5.17,5.17,0,0,1,1.24-1.9,7.59,7.59,0,0,1,1.93-1.35,11.76,11.76,0,0,1,1.88-.75,5.58,5.58,0,0,1,1.5-.21c.08.17.18.38.28.62s.21.49.32.77.2.54.29.8.17.51.24.74l-.43.2-2-1.93a1.79,1.79,0,0,0-.66.16c-.28.11-.56.24-.83.37a4.47,4.47,0,0,0-1.4,1.06A3.77,3.77,0,0,0,62,26.81a5.3,5.3,0,0,0-.1,2,8,8,0,0,0,.78,2.41A7.93,7.93,0,0,0,64,33.18a5.16,5.16,0,0,0,1.63,1.19,4,4,0,0,0,1.85.35,5.14,5.14,0,0,0,2-.53,4.61,4.61,0,0,0,.86-.53.93.93,0,0,0,.36-.44Z" transform="translate(-4.51 -4.01)"/><path class="cls-6" d="M78.4,31.49,74,33l-.18-.5a5.32,5.32,0,0,1,1.23-.9L71.47,21.47q-.36,0-.75.06a6.62,6.62,0,0,1-.77,0L69.77,21l4.4-1.55.17.5a7.41,7.41,0,0,1-.58.48c-.21.16-.43.3-.64.43l3.59,10.17c.25,0,.51-.06.78-.08a4.38,4.38,0,0,1,.73,0Z" transform="translate(-4.51 -4.01)"/><path class="cls-6" d="M82.79,30.3l-4,.82-.11-.52a7.27,7.27,0,0,1,1.2-.69l2-12.68.52-.1,7,10.79h.74a3.21,3.21,0,0,1,.7.13l.11.52-4.59,1L86.3,29c.22-.14.44-.27.68-.4s.46-.23.69-.33l-1.88-3-4.24.89-.48,3.5a6.5,6.5,0,0,1,1.62.11Zm-1.07-5.13,3.57-.75-2.18-3.48-.66-1.46h0l-.11,1.65Z" transform="translate(-4.51 -4.01)"/><path class="cls-6" d="M90.44,16l5-.26,0,.52a7.58,7.58,0,0,1-.86.33,6.78,6.78,0,0,1-.86.22l.56,10.79,4.18-.22.92-3,.47,0c0,.26.1.55.15.88s.09.68.13,1,.06.71.08,1.05,0,.64,0,.9l-9.14.48,0-.52a5.52,5.52,0,0,1,.79-.34l.68-.18L92,16.89a5.27,5.27,0,0,1-.81-.15,4.42,4.42,0,0,1-.7-.23Z" transform="translate(-4.51 -4.01)"/><path class="cls-6" d="M106.56,15.75l4.56.74L111,17a6.68,6.68,0,0,1-.73.14c-.24,0-.47.07-.71.09l-1.19,7.32a5.66,5.66,0,0,0,0,1.62,2.56,2.56,0,0,0,.44,1.12,2.34,2.34,0,0,0,.89.71,4.66,4.66,0,0,0,1.29.38,3,3,0,0,0,2.34-.42,3.51,3.51,0,0,0,1.2-2.44l1.16-7.14L115,18a6,6,0,0,1-.59-.42l.08-.52,3.83.62-.09.52a7.32,7.32,0,0,1-.75.25,3.93,3.93,0,0,1-.75.13l-1.16,7.21a5.78,5.78,0,0,1-.63,1.92,3.69,3.69,0,0,1-1.07,1.23,3.43,3.43,0,0,1-1.46.58,5.55,5.55,0,0,1-1.77,0,5.16,5.16,0,0,1-3.27-1.57,3.91,3.91,0,0,1-.68-3.31L107.88,17a5.54,5.54,0,0,1-1.41-.68Z" transform="translate(-4.51 -4.01)"/><path class="cls-6" d="M117.59,29.75a1.17,1.17,0,0,1,.57-.75,1.28,1.28,0,0,1,1-.07,1.26,1.26,0,0,1,.78.57,1.14,1.14,0,0,1,.09.93,1.11,1.11,0,0,1-.56.73,1.24,1.24,0,0,1-1,.06,1.22,1.22,0,0,1-.77-.56A1.1,1.1,0,0,1,117.59,29.75Z" transform="translate(-4.51 -4.01)"/><path class="cls-6" d="M123.69,31.42a1.88,1.88,0,0,0,.38.55,2.56,2.56,0,0,0,.91.53,3.56,3.56,0,0,0,1.07.26,2.7,2.7,0,0,0,1-.09,2.38,2.38,0,0,0,.82-.46,2,2,0,0,0,.56-.82,1.78,1.78,0,0,0,0-1.3,4.65,4.65,0,0,0-.71-1.22c-.32-.4-.67-.81-1.07-1.23a8.18,8.18,0,0,1-1-1.34,4.62,4.62,0,0,1-.59-1.52,3.25,3.25,0,0,1,.24-1.8,3.34,3.34,0,0,1,.76-1.17,3,3,0,0,1,1.09-.66,3.74,3.74,0,0,1,1.35-.15,4.93,4.93,0,0,1,1.52.36,11,11,0,0,1,1.82.91,5.86,5.86,0,0,1,1.19.93c-.08.19-.18.41-.31.65l-.42.75c-.14.25-.29.5-.44.73s-.28.44-.4.62l-.44-.18.25-2.58a3.63,3.63,0,0,0-.7-.52,6.73,6.73,0,0,0-1-.46,2.16,2.16,0,0,0-1.59-.08A1.85,1.85,0,0,0,127,23.27a1.81,1.81,0,0,0,0,1.33,4.73,4.73,0,0,0,.71,1.26c.32.41.68.83,1.06,1.26a8.7,8.7,0,0,1,1,1.34,4.46,4.46,0,0,1,.62,1.5,3,3,0,0,1-.2,1.72,3.66,3.66,0,0,1-.84,1.27,3.28,3.28,0,0,1-1.22.75,4.15,4.15,0,0,1-1.56.16,6.56,6.56,0,0,1-1.81-.45,6.79,6.79,0,0,1-1.81-1,3.8,3.8,0,0,1-1-1c.09-.18.2-.41.34-.67l.43-.79.46-.79c.16-.25.29-.46.42-.64l.44.18Z" transform="translate(-4.51 -4.01)"/><path class="cls-6" d="M131,34.84a1.19,1.19,0,0,1,.71-.62,1.29,1.29,0,0,1,.95.13,1.25,1.25,0,0,1,.65.71,1.15,1.15,0,0,1-.1.93,1.12,1.12,0,0,1-.7.6,1.25,1.25,0,0,1-.95-.13,1.21,1.21,0,0,1-.64-.7A1.11,1.11,0,0,1,131,34.84Z" transform="translate(-4.51 -4.01)"/><path class="cls-6" d="M144.74,29.11l4,3-.31.43c-.3-.09-.59-.18-.87-.29a7.49,7.49,0,0,1-.81-.38l-6.39,8.71L143.76,43l2.6-1.73.38.28c-.12.23-.27.48-.44.77s-.36.58-.56.88-.39.59-.59.86-.39.51-.56.72l-7.38-5.41.32-.42a3.89,3.89,0,0,1,.81.24,6.64,6.64,0,0,1,.65.29l6.37-8.7c-.19-.21-.37-.42-.53-.63a5,5,0,0,1-.4-.62Z" transform="translate(-4.51 -4.01)"/><path class="cls-6" d="M148.58,48.58l-3.42-3.15.35-.39a5.42,5.42,0,0,1,1.37.66l7.3-7.94a6.73,6.73,0,0,1-.4-.63,7.49,7.49,0,0,1-.36-.69l.36-.38,3.43,3.15-.36.39a5.78,5.78,0,0,1-.7-.29,6.23,6.23,0,0,1-.68-.36l-7.31,7.93a5.82,5.82,0,0,1,.44.66,4.52,4.52,0,0,1,.34.65Z" transform="translate(-4.51 -4.01)"/><path class="cls-6" d="M151.81,50.12a2.07,2.07,0,0,0,.09.67,2.71,2.71,0,0,0,.57.88,3.73,3.73,0,0,0,.83.72,2.66,2.66,0,0,0,.92.37,2.13,2.13,0,0,0,.94,0,2.19,2.19,0,0,0,.88-.48,1.72,1.72,0,0,0,.62-1.13,4.55,4.55,0,0,0-.07-1.41c-.1-.5-.22-1-.38-1.58a8.18,8.18,0,0,1-.3-1.66,4.5,4.5,0,0,1,.18-1.63,3.13,3.13,0,0,1,1-1.48,3.1,3.1,0,0,1,1.21-.69,2.74,2.74,0,0,1,1.27-.09,3.7,3.7,0,0,1,1.27.47,5.05,5.05,0,0,1,1.19,1,11.8,11.8,0,0,1,1.2,1.65,6.31,6.31,0,0,1,.63,1.37,6.75,6.75,0,0,1-.58.43c-.22.16-.46.32-.71.48s-.49.31-.72.45l-.64.36-.31-.35,1.4-2.19a3.21,3.21,0,0,0-.38-.77,7.19,7.19,0,0,0-.65-.86,2.16,2.16,0,0,0-1.38-.8,2,2,0,0,0-2.12,1.69,4.71,4.71,0,0,0,0,1.44c.1.52.22,1.05.38,1.61a9.66,9.66,0,0,1,.3,1.66,4.55,4.55,0,0,1-.14,1.61,3,3,0,0,1-1,1.44,3.52,3.52,0,0,1-1.32.75,3,3,0,0,1-1.43.1,3.83,3.83,0,0,1-1.46-.56,6.1,6.1,0,0,1-1.41-1.23,7.36,7.36,0,0,1-1.14-1.73,4,4,0,0,1-.41-1.36c.16-.13.36-.27.6-.44l.75-.51.77-.49.66-.38.31.36Z" transform="translate(-4.51 -4.01)"/><path class="cls-6" d="M159.69,62.74l-2.76-4.29.44-.29c.22.17.44.35.65.54a7.85,7.85,0,0,1,.63.65l9.1-5.86-1.5-2.34-2.71.6-.25-.39.65-.52.76-.57.77-.55c.25-.17.48-.33.69-.46l5.72,8.89-.7.42-.81.47-.83.47c-.27.15-.52.28-.76.39l-.25-.4,1.66-2.22L168.7,55l-9.1,5.86c.12.29.22.57.32.84a3.78,3.78,0,0,1,.21.8Z" transform="translate(-4.51 -4.01)"/><polyline class="cls-6" points="14.59 71.94 18.77 74.98 17.18 79.9 21.36 76.86 25.55 79.9 23.95 74.98 28.14 71.94 22.97 71.94 21.36 67.01 19.77 71.94 14.59 71.94"/><polyline class="cls-6" points="160.19 71.94 164.38 74.98 162.78 79.9 166.97 76.86 171.16 79.9 169.56 74.98 173.75 71.94 168.57 71.94 166.97 67.01 165.37 71.94 160.19 71.94"/><path class="cls-6" d="M20.62,104.91v.39c-.28.06-.63.12-1.05.17a8.7,8.7,0,0,1-1.24.08A2.24,2.24,0,0,1,18,105a6.37,6.37,0,0,1-.21-.66,5.4,5.4,0,0,1-.13-.72,5.6,5.6,0,0,1-.05-.69,7.27,7.27,0,0,1,.24-2.26,4.09,4.09,0,0,1,2.57-2.82,7.15,7.15,0,0,1,2.42-.45,6.82,6.82,0,0,1,2.51.31,4.53,4.53,0,0,1,1.72,1,4.12,4.12,0,0,1,1,1.57,6.35,6.35,0,0,1,.37,1.9,9.37,9.37,0,0,1-.07,1.67,4.36,4.36,0,0,1-.34,1.2h-.56l-.69,0-.7,0-.64-.07v-.39l2.13-.86a1.34,1.34,0,0,0,.1-.55q0-.37,0-.75a3.55,3.55,0,0,0-.32-1.41,3.13,3.13,0,0,0-.9-1.13A4.38,4.38,0,0,0,25,99.14a6.3,6.3,0,0,0-2.07-.22,6.32,6.32,0,0,0-1.92.33,4.22,4.22,0,0,0-1.44.83,3.36,3.36,0,0,0-.89,1.28,4.22,4.22,0,0,0-.26,1.67,3.59,3.59,0,0,0,.1.82.85.85,0,0,0,.21.42Z" transform="translate(-4.51 -4.01)"/><path class="cls-6" d="M29.75,113.78l-1.2.15c-.4,0-.81.07-1.22.09l-.07-.38,1.53-.89-.55-3.22-3.92.66.41,2.41,1.19.4.06.36a23.75,23.75,0,0,1-3,.51l-.07-.37,1-.77-.41-2.41-4.13.7.58,3.4,1.9.43.06.37a12.45,12.45,0,0,1-1.23.36,10.86,10.86,0,0,1-1.29.23l-1.23-7.29.43-.07a5.36,5.36,0,0,1,.56,1.15L28,108.11a4.7,4.7,0,0,1,.05-.63c0-.21.07-.43.11-.64l.43-.07Z" transform="translate(-4.51 -4.01)"/><path class="cls-6" d="M21.63,121c0,.23,0,.46,0,.67a4.68,4.68,0,0,1,0,.65l-.41.13-1.17-3.77.41-.13a3.85,3.85,0,0,1,.41.54l.3.53L29.7,117a6.2,6.2,0,0,1,0-.71,4.91,4.91,0,0,1,0-.57l.42-.13.39,1.26c.12.38.27.8.45,1.24s.33.88.47,1.31a6.22,6.22,0,0,1,.25,1.36,3,3,0,0,1-.18,1.21,2.47,2.47,0,0,1-.66,1,3,3,0,0,1-1.19.65,2.83,2.83,0,0,1-1.91,0,3.12,3.12,0,0,1-1.45-1.19c-.53.61-1,1.24-1.54,1.89s-1,1.31-1.47,2l-.17.91-.36.11-.54-1.74.23-.67c.25-.37.51-.72.76-1s.51-.63.78-.92.55-.58.84-.85.59-.55.92-.84l-.42-1.36Zm8.94-1.71c-.07-.23-.13-.42-.19-.56a2.38,2.38,0,0,0-.18-.39l-4.26,1.32.32,1a2.12,2.12,0,0,0,1.12,1.37,2.43,2.43,0,0,0,1.83.07,2,2,0,0,0,1.36-1.1A2.59,2.59,0,0,0,30.57,119.33Z" transform="translate(-4.51 -4.01)"/><path class="cls-6" d="M25.9,134.38l-1.75-3.84.4-.18c.16.17.32.34.46.52a5.82,5.82,0,0,1,.44.6l8.12-3.7-1-2.09-2.28.17-.16-.35.59-.35.69-.37.7-.36.61-.29,3.62,7.93-.62.26-.72.29-.73.28-.66.23-.17-.36,1.63-1.61-.95-2.07-8.12,3.7c.06.26.12.5.16.73a3.84,3.84,0,0,1,.09.68Z" transform="translate(-4.51 -4.01)"/><path class="cls-6" d="M30,141.84l-1.95-3.3.37-.23a4.67,4.67,0,0,1,.92.85L37,134.62a5.72,5.72,0,0,1-.17-.59q-.07-.32-.12-.63l.38-.22,2,3.3-.37.22a5.21,5.21,0,0,1-.49-.39,6.16,6.16,0,0,1-.44-.45l-7.65,4.54c.07.2.13.41.19.62a4.79,4.79,0,0,1,.11.6Z" transform="translate(-4.51 -4.01)"/><path class="cls-6" d="M33.52,145.58a5,5,0,0,1,.48,1.25l-.35.26L31.39,144l.35-.26q.24.13.48.3t.45.36l7.16-5.28a6.12,6.12,0,0,1-.22-.58q-.07-.28-.12-.51l.35-.26L44,143.46l-1,.67-1.06.64-.23-.32,1-1.47-2-2.7-3.43,2.53L38.86,145l1.08-.13.22.29a10.65,10.65,0,0,1-1,.86c-.37.27-.76.52-1.15.76l-.21-.29.49-1-1.59-2.15Z" transform="translate(-4.51 -4.01)"/><path class="cls-6" d="M40,154.68l-2.58-2.86.33-.29a4.63,4.63,0,0,1,1.07.65l6.6-6a4.73,4.73,0,0,1-.28-.55c-.09-.19-.17-.39-.25-.59l.33-.29,2.57,2.85-.32.29a6,6,0,0,1-.56-.29c-.18-.11-.36-.23-.52-.35l-6.61,6a5.24,5.24,0,0,1,.32.57,4,4,0,0,1,.22.56Z" transform="translate(-4.51 -4.01)"/><path class="cls-6" d="M54,153.53c-.27.29-.56.58-.85.86s-.59.57-.9.84L52,155l.65-1.63-2.43-2.19-2.66,3,1.82,1.64,1.17-.43.28.25a26.43,26.43,0,0,1-2,2.25l-.28-.25.33-1.24L47,154.67l-2.81,3.11,2.57,2.31,1.75-.85.28.26c-.23.35-.48.7-.74,1a11.5,11.5,0,0,1-.87,1l-5.49-5,.29-.32a5,5,0,0,1,1.16.55l6-6.6c-.12-.17-.24-.34-.35-.53a6.45,6.45,0,0,1-.31-.58l.29-.32Z" transform="translate(-4.51 -4.01)"/><path class="cls-6" d="M49.53,163.46l.25-.36a4.76,4.76,0,0,1,1.22.39l5-7.37q-.24-.26-.45-.51l-.36-.49.25-.36,1.27.86.5.32.61.37.61.36c.2.11.35.21.48.29a5.32,5.32,0,0,1,2.48,3.33,5.21,5.21,0,0,1-1,4,6.76,6.76,0,0,1-1.51,1.63,4.68,4.68,0,0,1-1.83.87,4.76,4.76,0,0,1-2.09,0,7,7,0,0,1-2.31-1.05l-.41-.31-.47-.37-.5-.4-.49-.36Zm8.75-6-.63-.41a4,4,0,0,0-.5-.28l-5.09,7.53a1.19,1.19,0,0,0,.21.17l.34.25L53,165l.24.17a3.57,3.57,0,0,0,1.67.66,3.4,3.4,0,0,0,1.56-.2,4.38,4.38,0,0,0,1.4-.88A7.15,7.15,0,0,0,59,163.37,5.94,5.94,0,0,0,59.7,162a4.41,4.41,0,0,0,.26-1.56,3.54,3.54,0,0,0-.4-1.56A3.69,3.69,0,0,0,58.28,157.49Z" transform="translate(-4.51 -4.01)"/><path class="cls-6" d="M66.19,172.07a1.62,1.62,0,0,0,.31.46,2,2,0,0,0,.74.45,2.89,2.89,0,0,0,.88.24,2.16,2.16,0,0,0,.81-.06,2,2,0,0,0,.69-.36,1.86,1.86,0,0,0,.48-.67,1.47,1.47,0,0,0,.05-1.07,3.67,3.67,0,0,0-.56-1c-.26-.34-.54-.68-.86-1a7.12,7.12,0,0,1-.82-1.12,3.88,3.88,0,0,1-.46-1.27,2.67,2.67,0,0,1,.23-1.48,2.74,2.74,0,0,1,.64-.95,2.41,2.41,0,0,1,.92-.52,2.88,2.88,0,0,1,1.11-.11,3.81,3.81,0,0,1,1.25.33,8.21,8.21,0,0,1,1.48.78,4.69,4.69,0,0,1,1,.79,5,5,0,0,1-.26.53c-.11.2-.23.4-.36.61l-.37.59-.34.5-.36-.15.25-2.12A2.82,2.82,0,0,0,72,165a6.47,6.47,0,0,0-.79-.4,1.78,1.78,0,0,0-1.31-.09,1.55,1.55,0,0,0-.9.91,1.51,1.51,0,0,0-.06,1.1,3.7,3.7,0,0,0,.56,1.05c.26.35.54.7.86,1.06a7.3,7.3,0,0,1,.82,1.12,3.68,3.68,0,0,1,.48,1.25,2.38,2.38,0,0,1-.19,1.41,3,3,0,0,1-.71,1,2.59,2.59,0,0,1-1,.59,3.13,3.13,0,0,1-1.28.11,5.26,5.26,0,0,1-1.49-.4,6.07,6.07,0,0,1-1.47-.87,3.31,3.31,0,0,1-.8-.86l.29-.54.37-.65.4-.64a5.79,5.79,0,0,1,.35-.52l.36.15Z" transform="translate(-4.51 -4.01)"/><path class="cls-6" d="M74.79,171.06a7,7,0,0,1,.87-2A5.26,5.26,0,0,1,77,167.62a4.15,4.15,0,0,1,1.74-.7,5.07,5.07,0,0,1,3.88,1,4,4,0,0,1,1.15,1.48,4.91,4.91,0,0,1,.45,1.9,6.65,6.65,0,0,1-.25,2.18,7,7,0,0,1-.87,2A5.26,5.26,0,0,1,81.76,177a4.15,4.15,0,0,1-1.74.7,5.21,5.21,0,0,1-3.88-1A4.15,4.15,0,0,1,75,175.14a4.91,4.91,0,0,1-.45-1.9A6.93,6.93,0,0,1,74.79,171.06Zm1.55.41a7.27,7.27,0,0,0-.27,1.8,4.75,4.75,0,0,0,.2,1.59,3.09,3.09,0,0,0,.73,1.22,2.77,2.77,0,0,0,1.31.74,2.48,2.48,0,0,0,1.38,0,3,3,0,0,0,1.17-.72,5.39,5.39,0,0,0,.92-1.29,8.33,8.33,0,0,0,.64-1.7,7.64,7.64,0,0,0,.28-1.79,4.67,4.67,0,0,0-.19-1.58,3.17,3.17,0,0,0-.73-1.23,2.75,2.75,0,0,0-1.31-.73,2.47,2.47,0,0,0-1.45,0,2.83,2.83,0,0,0-1.16.72,4.46,4.46,0,0,0-.89,1.29A8.78,8.78,0,0,0,76.34,171.47Z" transform="translate(-4.51 -4.01)"/><path class="cls-6" d="M88.08,178.59a4.71,4.71,0,0,1,1.23.51l0,.44-3.78-.47,0-.43a4.94,4.94,0,0,1,.55-.15l.57-.08,1.09-8.83a3.49,3.49,0,0,1-.58-.24,4.49,4.49,0,0,1-.45-.26l.05-.43,7,.86c0,.38-.12.78-.19,1.18s-.17.81-.27,1.21l-.38-.05-.41-1.71-3.32-.41L88.65,174l2.65.32.65-.87.36.05a12.26,12.26,0,0,1-.1,1.35c-.06.45-.14.9-.24,1.36l-.36,0-.41-1.06-2.65-.33Z" transform="translate(-4.51 -4.01)"/><path class="cls-6" d="M101.5,180.14l-4.21,0v-.43c.22-.08.45-.15.67-.21a7.28,7.28,0,0,1,.73-.14l.07-8.93h-2.3l-.81,2.13h-.37a6.21,6.21,0,0,1-.07-.68c0-.26,0-.52,0-.78s0-.53,0-.78,0-.48,0-.68l8.71.06c0,.2,0,.43,0,.68s0,.5,0,.77,0,.52,0,.78a6.57,6.57,0,0,1-.08.69h-.39l-.77-2.15-2.28,0-.07,8.93.73.15a5,5,0,0,1,.65.22Z" transform="translate(-4.51 -4.01)"/><path class="cls-6" d="M116,168.62a3.44,3.44,0,0,1-.64,0,6.15,6.15,0,0,1-.69-.11l-.08-.43,3.32-.56.07.43a7.35,7.35,0,0,1-1,.55l-.87,10-.88.33-3.74-7.65-1,8.27-.87.33-4.26-9.3c-.2,0-.41,0-.6-.06s-.39-.07-.59-.12l-.07-.43,3.85-.64.07.43-.54.29c-.19.1-.39.19-.61.28l2.47,5.71.65,1.87h0l.19-2,.86-7.07.5-.08,3.28,6.37.75,1.85h0v-2Z" transform="translate(-4.51 -4.01)"/><path class="cls-6" d="M123.2,176.54,120,177.59l-.14-.41a6.42,6.42,0,0,1,.91-.69l.48-10.57.41-.14,6.73,8.18c.2,0,.4-.05.6-.06a2.31,2.31,0,0,1,.59,0l.14.41-3.67,1.23-.14-.42a6.41,6.41,0,0,1,.52-.39l.53-.34-1.83-2.28-3.38,1.13-.07,2.91a5.37,5.37,0,0,1,1.34-.06Zm-1.37-4.1,2.86-.95-2.13-2.65-.67-1.13h0l.06,1.37Z" transform="translate(-4.51 -4.01)"/><path class="cls-6" d="M133.76,171.57l.66-.16c.21,0,.43-.07.64-.09l.2.39-3.53,1.77-.19-.39a3.63,3.63,0,0,1,.46-.49l.48-.39-4-8a4.56,4.56,0,0,1-.7.16l-.57.06-.2-.39,1.18-.59c.36-.18.75-.4,1.15-.65s.82-.47,1.22-.67a5.38,5.38,0,0,1,1.3-.47,3.2,3.2,0,0,1,1.23,0,2.57,2.57,0,0,1,1.06.49,3.13,3.13,0,0,1,.83,1.08,2.78,2.78,0,0,1,.3,1.88,3.28,3.28,0,0,1-.94,1.63c.69.41,1.39.82,2.11,1.2s1.46.77,2.21,1.13l.92,0,.17.34-1.63.82-.7-.12c-.4-.19-.79-.38-1.14-.58s-.7-.4-1-.62-.66-.45-1-.69l-1-.77-1.27.63ZM130.62,163c-.22.1-.39.2-.53.28a1.8,1.8,0,0,0-.35.24l2,4,1-.48a2.14,2.14,0,0,0,1.18-1.33,2.46,2.46,0,0,0-.23-1.81,1.94,1.94,0,0,0-1.31-1.16A2.52,2.52,0,0,0,130.62,163Z" transform="translate(-4.51 -4.01)"/><path class="cls-6" d="M141.61,155.61c.21.34.43.68.63,1s.41.71.6,1.07l-.33.22-1.43-1-2.71,1.84,2.24,3.29,2-1.37-.14-1.25.31-.21a24.91,24.91,0,0,1,1.7,2.5l-.31.21-1.12-.61-2,1.38,2.35,3.46,2.85-1.94-.4-1.9.31-.22c.29.31.57.64.84,1a11.4,11.4,0,0,1,.75,1.07l-6.12,4.16-.24-.36a5,5,0,0,1,.81-1l-5-7.35a5.29,5.29,0,0,1-.6.21c-.21.07-.42.12-.63.17l-.24-.36Z" transform="translate(-4.51 -4.01)"/><path class="cls-6" d="M158.22,154.78l-3,3-.31-.3a6.08,6.08,0,0,1,.33-.62,5.52,5.52,0,0,1,.41-.62l-6.32-6.32-1.62,1.63,1,2.08-.27.26c-.16-.12-.34-.26-.53-.43s-.39-.34-.59-.51l-.58-.53c-.19-.17-.35-.33-.49-.47l6.16-6.16.46.49c.17.18.35.37.52.57l.52.58q.26.28.45.54l-.28.28-2.08-1-1.61,1.62,6.31,6.31.62-.41a3,3,0,0,1,.62-.31Z" transform="translate(-4.51 -4.01)"/><path class="cls-6" d="M157.34,139.39c.31.25.62.51.92.78s.61.55.9.83l-.24.31-1.68-.51-2,2.59,3.15,2.42,1.49-1.94-.52-1.14.22-.29a24.4,24.4,0,0,1,2.41,1.84l-.23.3-1.26-.23L159,146.29l3.31,2.55,2.11-2.74-1-1.68.23-.29c.37.2.74.42,1.1.66a8.55,8.55,0,0,1,1,.78l-4.51,5.86-.34-.26a4.74,4.74,0,0,1,.46-1.2l-7.05-5.42c-.15.13-.32.26-.5.39s-.36.24-.55.35L153,145Z" transform="translate(-4.51 -4.01)"/><path class="cls-6" d="M167.5,141.07a1.43,1.43,0,0,0,.5-.24,2.24,2.24,0,0,0,.55-.67,3.34,3.34,0,0,0,.35-.84,2.08,2.08,0,0,0,0-.82,1.69,1.69,0,0,0-.26-.72,1.71,1.71,0,0,0-.6-.56A1.45,1.45,0,0,0,167,137a3.65,3.65,0,0,0-1.08.42c-.37.21-.75.45-1.14.71a6.34,6.34,0,0,1-1.22.67,3.71,3.71,0,0,1-1.32.28,2.57,2.57,0,0,1-1.43-.42,2.74,2.74,0,0,1-.85-.76,2.4,2.4,0,0,1-.4-1,3,3,0,0,1,0-1.12,4.11,4.11,0,0,1,.49-1.19,8.92,8.92,0,0,1,1-1.37,5.09,5.09,0,0,1,.91-.84,3.51,3.51,0,0,1,.49.33l.56.43.54.45.45.41-.2.33-2.07-.52a2.62,2.62,0,0,0-.51.5,6.19,6.19,0,0,0-.5.73,1.75,1.75,0,0,0-.26,1.28,1.47,1.47,0,0,0,.78,1,1.52,1.52,0,0,0,1.08.21,4,4,0,0,0,1.12-.41c.38-.21.77-.45,1.16-.71a6.94,6.94,0,0,1,1.22-.67,3.53,3.53,0,0,1,1.3-.31,2.39,2.39,0,0,1,1.38.38,2.92,2.92,0,0,1,.93.84,2.47,2.47,0,0,1,.45,1.1,3.13,3.13,0,0,1-.06,1.28,5.21,5.21,0,0,1-.6,1.43,5.65,5.65,0,0,1-1.06,1.34,3.21,3.21,0,0,1-.95.67c-.14-.09-.31-.21-.5-.36s-.4-.29-.6-.45l-.58-.48-.47-.41.2-.34Z" transform="translate(-4.51 -4.01)"/><path class="cls-6" d="M174.77,129l-1.67,3.87-.4-.17c0-.23,0-.47.07-.7a7.13,7.13,0,0,1,.15-.72l-8.19-3.54-.91,2.1,1.65,1.58-.15.35c-.19-.06-.41-.12-.65-.21s-.49-.16-.74-.26l-.73-.27-.63-.26,3.45-8,.62.28.69.34.7.36a6.73,6.73,0,0,1,.61.33l-.15.37-2.29-.13-.9,2.09,8.19,3.54c.15-.21.29-.42.43-.6a3.17,3.17,0,0,1,.45-.52Z" transform="translate(-4.51 -4.01)"/><path class="cls-6" d="M168.26,115.05c.38.12.77.24,1.15.38s.76.28,1.14.44l-.1.37-1.76.15-.89,3.14,3.82,1.09.67-2.36-.91-.86.11-.36a27,27,0,0,1,2.91.82l-.1.37-1.26.25-.67,2.35,4,1.14.94-3.32-1.53-1.2.1-.36c.43,0,.85.12,1.27.21a11.77,11.77,0,0,1,1.26.34l-2,7.11-.42-.12a4.93,4.93,0,0,1,0-1.28l-8.56-2.43a4.29,4.29,0,0,1-.31.55c-.12.19-.25.36-.38.54l-.42-.12Z" transform="translate(-4.51 -4.01)"/><path class="cls-6" d="M178.71,112l.25-.63a6.27,6.27,0,0,1,.29-.58l.43.06-.56,3.91-.43-.06a3.49,3.49,0,0,1-.13-.66c0-.21,0-.41-.05-.61l-8.81-1.27a3.64,3.64,0,0,1-.27.65q-.13.28-.27.51l-.43-.06.19-1.31c.05-.4.09-.83.12-1.31s.08-.94.14-1.38a5.37,5.37,0,0,1,.36-1.34,3,3,0,0,1,.68-1,2.5,2.5,0,0,1,1-.59,3,3,0,0,1,1.36-.07,2.78,2.78,0,0,1,1.71.83,3.18,3.18,0,0,1,.8,1.7c.74-.32,1.47-.67,2.2-1s1.46-.76,2.18-1.17l.55-.75.37,0-.26,1.81-.5.51c-.38.22-.76.43-1.12.61s-.73.34-1.1.49-.75.28-1.12.41l-1.2.36-.2,1.4Zm-8.8-2.3a5.72,5.72,0,0,0-.07.59,2.06,2.06,0,0,0,0,.43l4.41.64.15-1.07a2.1,2.1,0,0,0-.42-1.72,2.38,2.38,0,0,0-1.62-.85,2,2,0,0,0-1.7.41A2.48,2.48,0,0,0,169.91,109.67Z" transform="translate(-4.51 -4.01)"/><path class="cls-6" d="M179.5,101.84a1.34,1.34,0,0,0,.32-.46,2.22,2.22,0,0,0,.14-.85,2.93,2.93,0,0,0-.11-.9,1.94,1.94,0,0,0-.37-.73,1.68,1.68,0,0,0-.59-.5,1.72,1.72,0,0,0-.8-.2,1.44,1.44,0,0,0-1,.36,3.68,3.68,0,0,0-.73.9c-.22.36-.43.75-.64,1.18a6.68,6.68,0,0,1-.73,1.18,3.78,3.78,0,0,1-1,.9,2.6,2.6,0,0,1-1.45.34,2.67,2.67,0,0,1-1.12-.24,2.4,2.4,0,0,1-.83-.65,3.11,3.11,0,0,1-.52-1,4.32,4.32,0,0,1-.16-1.28,9.33,9.33,0,0,1,.17-1.67,5.1,5.1,0,0,1,.37-1.19,4.54,4.54,0,0,1,.59,0l.7.1.69.12.59.13v.39l-2.07.57a3.06,3.06,0,0,0-.19.69,6,6,0,0,0-.07.88,1.82,1.82,0,0,0,.4,1.25,1.54,1.54,0,0,0,1.19.49,1.5,1.5,0,0,0,1-.36,3.89,3.89,0,0,0,.77-.91c.22-.37.44-.77.65-1.19a7.64,7.64,0,0,1,.74-1.19,3.81,3.81,0,0,1,1-.91,2.44,2.44,0,0,1,1.39-.34,2.87,2.87,0,0,1,1.22.26,2.56,2.56,0,0,1,.93.73,3.29,3.29,0,0,1,.59,1.15,5.18,5.18,0,0,1,.18,1.53,5.78,5.78,0,0,1-.25,1.69,3.38,3.38,0,0,1-.5,1.06l-.61-.06-.75-.1-.74-.13c-.24,0-.44-.09-.61-.13v-.39Z" transform="translate(-4.51 -4.01)"/><path class="cls-2" d="M102.65,53.93s13.17-1.66,18.33.5c0,0-5.66.5-3.5,3" transform="translate(-4.51 -4.01)"/><path class="cls-2" d="M143.65,80.14s-16.62-41-60-22.09C65.41,66,66.15,73.77,66.15,73.77a45.14,45.14,0,0,1-6.75,7.75c-11.84,11.29-5.25,23.91.08,29.75,1.25-6.25,0-7.12,9.42-11.5,8.48-3.94,17.08.16,17.08.16s16.12-6.93,21.28,9.39c5.22,16.52-22.06,33.77-22.06,33.77C116.59,133,119.66,122,119.66,122s.06,4,1.49,14.9c10.75-15.75,8.41-26.68,8.41-26.68s3.08,2.22,6.36,12.71c0,0,6.61-8.67,3-23.1,0,0,3.38,2.79,10,3.79A75.6,75.6,0,0,0,143.65,80.14Z" transform="translate(-4.51 -4.01)"/><path class="cls-7" d="M58.82,106.43S52.4,87.77,66.65,80.77l9.25,6,12.75-1,5.75,6.5S75.32,84.27,58.82,106.43Z" transform="translate(-4.51 -4.01)"/><path class="cls-2" d="M90.15,85.19s-33.38,12-31.21,22.29c0,0,8.75-15.42,38.34-12.34" transform="translate(-4.51 -4.01)"/><polygon class="cls-7" points="65.89 92.76 81.89 91.01 82.64 86.26 65.89 92.76"/><path class="cls-7" d="M77.65,82.27l-6-6s0-10,23.25-15.75c0,0,17.13-3.75,25.5,1.12,0,0,4.94,2.79,6.5,4.38,1.3,1.31,1.25,2.41-2.75,2.75,0,0,.88,1.37,6.13,1.37a47.93,47.93,0,0,1,15.95,30.71c.07.6-5-3.08-5-3.08s-4.83-3.59-7.33-5.92c0,0,5.08,22.83,2.08,24.83,0,0-3.63-12.24-7.33-15.16-1.58-1.25-1.21.41-1.21.41s0,16.59-3.79,20.09c0,0-.75-8.5-2.25-10.75,0,0-6.75,13.25-12.75,16.25,0,0,11.5-23.25-1-31.75A24.12,24.12,0,0,0,90.32,91.1l1.33-6.83" transform="translate(-4.51 -4.01)"/><polyline class="cls-2" points="62.31 95.59 80.14 97.42 85.97 94.59 83.31 90.92"/><path class="cls-2" d="M77,82s-.25-8,26.87-10.38a40.68,40.68,0,0,1-7.12,2.63c-5.91,1.54-13.36,3.17-13,7.16C84.48,88.1,77,82,77,82Z" transform="translate(-4.51 -4.01)"/><path class="cls-2" d="M86.57,81.91a2.47,2.47,0,1,0-3.76-3,2.47,2.47,0,1,0,3.76,3Z" transform="translate(-4.51 -4.01)"/><path class="cls-2" d="M76.4,81.27S73.69,75.85,78,74.52a8.32,8.32,0,0,0-6,3.33l-.5,1.67,4.16,3.16" transform="translate(-4.51 -4.01)"/><path class="cls-2" d="M111.15,107.27s2.5-3.34,5.28-.38c0,0-4.18-7.68-7.74-10l2.17,4-2.78,4.44" transform="translate(-4.51 -4.01)"/><circle class="cls-2" cx="62.8" cy="82.43" r="1"/><circle class="cls-8" cx="99.13" cy="98.62" r="64.83" transform="translate(-34.71 41.43) rotate(-22.5)"/><circle class="cls-9" cx="99.13" cy="98.62" r="64.83" transform="translate(-34.71 41.43) rotate(-22.5)"/><path class="cls-2" d="M172.9,168.71h-2v-.21l.31-.09a1.86,1.86,0,0,1,.34-.07v-4.17h-1.07l-.37,1H170c0-.09,0-.2,0-.32l0-.36c0-.12,0-.25,0-.36s0-.23,0-.32H174c0,.09,0,.2,0,.31s0,.24,0,.36,0,.25,0,.37,0,.22,0,.32h-.18l-.37-1h-1.07v4.17l.34.07a1.58,1.58,0,0,1,.31.09Z" transform="translate(-4.51 -4.01)"/><path class="cls-2" d="M179.92,168.71H178.2v-.21l.28-.09.29-.07v-3.15l0-.82h-.06l-.23.75-1.43,3.59h-.19l-1.36-3.59-.25-.82h-.07v4a1.34,1.34,0,0,1,.27.07,2.67,2.67,0,0,1,.26.09v.21h-1.46v-.21l.28-.1.29-.07v-4.14l-.29-.08-.29-.1v-.2h1.44l1.22,3.2.23.72h0l.24-.74,1.26-3.18h1.25v.2l-.26.1-.27.08v4.15l.28.07.24.09Z" transform="translate(-4.51 -4.01)"/></svg>