<?xml version="1.0" encoding="UTF-8"?>
<svg width="126px" height="55px" viewBox="0 0 126 55" version="1.1" xmlns="http://www.w3.org/2000/svg" xmlns:xlink="http://www.w3.org/1999/xlink">
    <title>New Poq logo</title>
    <g id="🖼-Design" stroke="none" stroke-width="1" fill="none" fill-rule="evenodd">
        <g id="T#01---Homepage-REBRAND-reworked-v3" transform="translate(-83.000000, -46.000000)" fill="#1B1857" fill-rule="nonzero">
            <g id="Group-17" transform="translate(-53.500657, 0.000000)">
                <g id="New-Poq-logo" transform="translate(136.500657, 46.000000)">
                    <path d="M44,11.5147916 L44,32.4815146 C44.0007446,32.8488658 44.1950037,33.1880531 44.5099124,33.3718504 L62.4897486,43.8613758 C62.8053047,44.0462081 63.1946953,44.0462081 63.5102514,43.8613758 L81.4900876,33.3766445 C81.8049963,33.1928473 81.9992554,32.8536599 82,32.4863087 L82,11.5147916 C81.9991164,11.1474782 81.8048945,10.8083558 81.4900876,10.6244558 L63.5102514,0.137669887 C63.1943576,-0.0458899622 62.8056424,-0.0458899622 62.4897486,0.137669887 L44.5099124,10.6224011 C44.1944777,10.8066693 44,11.146744 44,11.5147916 Z M72.0546743,27.8750542 L63.5109295,32.8575102 C63.1950356,33.0410701 62.8063205,33.0410701 62.4904267,32.8575102 L53.9466819,27.8750542 C53.6319766,27.6910516 53.4377918,27.3519939 53.4367695,26.9847184 L53.4367695,17.0170668 C53.4375141,16.6497156 53.6317733,16.3105282 53.9466819,16.126731 L62.4904267,11.1442749 C62.8059828,10.9594426 63.1953733,10.9594426 63.5109295,11.1442749 L72.0546743,16.126731 C72.3695829,16.3105282 72.563842,16.6497156 72.5645866,17.0170668 L72.5645866,26.9819789 C72.5645866,27.3502334 72.3702164,27.6905604 72.0546743,27.8750542 Z" id="Shape"></path>
                    <path d="M88.5099579,10.7016548 C88.1951229,10.8869269 88.0008836,11.2285795 88,11.5986334 L88,32.7238589 C88.0007447,33.0939508 88.1950211,33.4356689 88.5099579,33.6208374 L106.491398,44.1837952 C106.806122,44.3686757 107.193878,44.3686757 107.508602,44.1837952 L116.542044,38.8771319 L116.542044,53.9615517 C116.54082,54.3329305 116.735253,54.676508 117.051543,54.861869 C117.367832,55.0472301 117.757484,55.0459559 118.072596,54.8585303 L125.490042,50.5012843 C125.804979,50.3161158 125.999255,49.9743977 126,49.6043057 L126,11.6007033 C125.999116,11.2306495 125.804877,10.8889968 125.490042,10.7037247 L107.511992,0.13869704 C107.19607,-0.0462323468 106.80732,-0.0462323468 106.491398,0.13869704 L88.5099579,10.7016548 Z M116.057178,28.0830297 L107.51267,33.1026598 C107.197613,33.2862689 106.810525,33.2862689 106.495467,33.1026598 L97.9509601,28.0830297 C97.6362267,27.8976542 97.4420246,27.5560669 97.4410022,27.1860511 L97.4410022,17.1440309 C97.4417469,16.773939 97.6360234,16.4322209 97.9509601,16.2470523 L106.495467,11.2274222 C106.810191,11.0425417 107.197947,11.0425417 107.51267,11.2274222 L116.057178,16.2470523 C116.372625,16.4317002 116.567139,16.7737478 116.567139,17.1440309 L116.567139,27.1832912 C116.568061,27.5545602 116.373467,27.8978908 116.057178,28.0830297 Z" id="Shape"></path>
                    <path d="M0.509912386,10.7016548 C0.195105485,10.8869269 0.00088356554,11.2285795 0,11.5986334 L0,49.6043057 C0.00074462968,49.9743977 0.195003748,50.3161158 0.509912386,50.5012843 L7.92669653,54.8585303 C8.24178019,55.0459559 8.63139801,55.0472301 8.94765905,54.861869 C9.26392008,54.676508 9.45833648,54.3329305 9.45711176,53.9615517 L9.45711176,38.8819618 L18.4897486,44.1886251 C18.8053047,44.3748364 19.1946953,44.3748364 19.5102514,44.1886251 L37.4894095,33.6256673 C37.8050902,33.4411953 38,33.0991145 38,32.7286887 L38,11.6007033 C37.9991153,11.2304692 37.8045792,10.8887182 37.4894095,10.7037247 L19.5102514,0.13869704 C19.1943576,-0.0462323468 18.8056424,-0.0462323468 18.4897486,0.13869704 L0.509912386,10.7016548 Z M28.0546743,28.0830297 L19.5109295,33.1026598 C19.1950356,33.2875892 18.8063205,33.2875892 18.4904267,33.1026598 L9.94668189,28.0830297 C9.63161403,27.8979325 9.43711514,27.556247 9.43609143,27.1860511 L9.43609143,17.1440309 C9.43609143,16.7736052 9.63100119,16.4315244 9.94668189,16.2470523 L18.4904267,11.2274222 C18.8059828,11.0412109 19.1953733,11.0412109 19.5109295,11.2274222 L28.0546743,16.2470523 C28.3695829,16.4322209 28.563842,16.773939 28.5645866,17.1440309 L28.5645866,27.1832912 C28.5645866,27.5542933 28.3702164,27.8971594 28.0546743,28.0830297 Z" id="Shape"></path>
                </g>
            </g>
        </g>
    </g>
</svg>